<svg xmlns="http://www.w3.org/2000/svg" width="40.664" height="40.666" viewBox="0 0 40.664 40.666"><defs><style>.a{fill:#fff;}</style></defs><path class="a" d="M3.389,121.211h30.5a.678.678,0,0,0,.678-.678V102.911H33.211v16.944H3.389a2.033,2.033,0,0,1,0-4.067H4.744a.678.678,0,0,0,.678-.678V94.778H16.266V93.422H5.422V88.678A.678.678,0,0,0,4.744,88H3.389A3.393,3.393,0,0,0,0,91.389v26.433A3.393,3.393,0,0,0,3.389,121.211ZM1.356,94.1V91.389a2.033,2.033,0,0,1,2.033-2.033h.678v25.077H3.389a3.375,3.375,0,0,0-2.033.678Zm0,0" transform="translate(0 -80.545)"/><path class="a" d="M88.811,192H80.678a.678.678,0,0,0-.678.678V198.1a.678.678,0,0,0,.678.678h8.133a.678.678,0,0,0,.678-.678v-2.033H92.2v-1.356H89.489v-2.033A.678.678,0,0,0,88.811,192Zm-.678,5.422H81.356v-4.067h6.778Zm0,0" transform="translate(-73.222 -175.734)"/><path class="a" d="M95.589,298.844h8.133a.678.678,0,0,0,.678-.678v-5.422a.678.678,0,0,0-.678-.678h-3.389V288H98.977v4.067H95.589a.678.678,0,0,0-.678.678v2.033H89.489v-2.033a.678.678,0,0,0-.678-.678H80.678a.678.678,0,0,0-.678.678v5.422a.678.678,0,0,0,.678.678h8.133a.678.678,0,0,0,.678-.678v-2.033h5.422v2.033A.678.678,0,0,0,95.589,298.844Zm.678-5.422h6.778v4.067H96.266Zm-8.133,4.067H81.356v-4.067h6.778Zm0,0" transform="translate(-73.222 -263.6)"/><path class="a" d="M278.1,64a6.1,6.1,0,1,0,6.1,6.1A6.1,6.1,0,0,0,278.1,64Zm0,10.844a4.744,4.744,0,1,1,4.744-4.744A4.744,4.744,0,0,1,278.1,74.844Zm0,0" transform="translate(-248.956 -58.578)"/><path class="a" d="M230.366,14.233a.678.678,0,0,0,.678-.678V9.489a.678.678,0,0,0-.678-.678H227.9a8.979,8.979,0,0,0-.536-1.295l1.749-1.742a.678.678,0,0,0,0-.96l-2.878-2.881a.677.677,0,0,0-.958,0l-1.746,1.749a9.016,9.016,0,0,0-1.295-.536V.678A.678.678,0,0,0,221.555,0h-4.067a.678.678,0,0,0-.678.678V3.147a9.016,9.016,0,0,0-1.295.536l-1.743-1.749a.677.677,0,0,0-.958,0l-2.881,2.879a.678.678,0,0,0,0,.96l1.749,1.742a8.961,8.961,0,0,0-.535,1.3h-2.469a.678.678,0,0,0-.678.678v4.067a.678.678,0,0,0,.678.678h2.469a8.979,8.979,0,0,0,.536,1.295l-1.749,1.742a.678.678,0,0,0,0,.96l2.878,2.873a.678.678,0,0,0,.958,0l1.743-1.743a9.063,9.063,0,0,0,1.3.536v2.469a.678.678,0,0,0,.678.678h4.067a.678.678,0,0,0,.678-.678V19.9a9.024,9.024,0,0,0,1.3-.536l1.743,1.743a.678.678,0,0,0,.958,0l2.881-2.874a.678.678,0,0,0,0-.96l-1.749-1.742a8.969,8.969,0,0,0,.536-1.294Zm-3.63-.851a7.752,7.752,0,0,1-.8,1.925.678.678,0,0,0,.107.821l1.627,1.621-1.92,1.916-1.621-1.623a.678.678,0,0,0-.821-.107,7.72,7.72,0,0,1-1.925.8.678.678,0,0,0-.507.655v2.3h-2.711v-2.3a.678.678,0,0,0-.505-.655,7.719,7.719,0,0,1-1.925-.8.678.678,0,0,0-.821.107l-1.622,1.622-1.92-1.915L213,16.129a.678.678,0,0,0,.107-.821,7.751,7.751,0,0,1-.8-1.925.678.678,0,0,0-.655-.505h-2.3V10.166h2.3a.678.678,0,0,0,.655-.505,7.751,7.751,0,0,1,.8-1.925A.678.678,0,0,0,213,6.915l-1.627-1.622,1.921-1.921L214.915,5a.678.678,0,0,0,.821.107,7.719,7.719,0,0,1,1.925-.8.678.678,0,0,0,.5-.655v-2.3h2.711v2.3a.678.678,0,0,0,.505.655,7.72,7.72,0,0,1,1.925.8A.678.678,0,0,0,224.131,5l1.622-1.627,1.921,1.921-1.627,1.622a.677.677,0,0,0-.107.821,7.763,7.763,0,0,1,.8,1.925.677.677,0,0,0,.653.5h2.3v2.711h-2.3a.678.678,0,0,0-.655.505Zm0,0" transform="translate(-190.378 0)"/><path class="a" d="M314.711,104a2.711,2.711,0,1,0,2.711,2.711A2.711,2.711,0,0,0,314.711,104Zm0,4.067a1.356,1.356,0,1,1,1.356-1.356A1.356,1.356,0,0,1,314.711,108.067Zm0,0" transform="translate(-285.567 -95.189)"/></svg>