<svg xmlns="http://www.w3.org/2000/svg" width="33.534" height="39.464" viewBox="0 0 33.534 39.464"><defs><style>.a{fill:#fff;}</style></defs><g transform="translate(-30.433)"><g transform="translate(30.433 0)"><g transform="translate(0)"><path class="a" d="M63.854,32.839,58.087,22.707a1.625,1.625,0,0,0,.9-1.6l-.429-3.585,2.455-2.572a1.605,1.605,0,0,0,.039-2.143l-2.455-2.65L59.1,6.535A1.612,1.612,0,0,0,57.853,4.82l-3.546-.7L52.592.962A1.533,1.533,0,0,0,50.6.222h-.039l-3.273,1.52L44.1.183a1.518,1.518,0,0,0-2.065.624L40.278,3.963l-3.546.624A1.6,1.6,0,0,0,35.446,6.34l.429,3.585L33.419,12.5a1.605,1.605,0,0,0-.039,2.143l2.455,2.65-.507,3.624a1.6,1.6,0,0,0,1.013,1.637L30.536,32.839a.793.793,0,0,0,0,.779.8.8,0,0,0,.662.39h6.235l2.845,4.949a.8.8,0,0,0,.662.39.754.754,0,0,0,.662-.39l5.573-9.509,5.573,9.625a.8.8,0,0,0,.662.39.754.754,0,0,0,.662-.39l2.845-5.066h6.235a.754.754,0,0,0,.662-.39A.645.645,0,0,0,63.854,32.839Zm-22.875,4.17-2.416-4.17a.8.8,0,0,0-.662-.39H32.523L37.9,22.941l2.221.39,1.715,3.157a1.533,1.533,0,0,0,1.987.74h.039l1.6-.74.779,1.364Zm2.26-11.184H43.2L41.486,22.59a1.454,1.454,0,0,0-1.091-.74l-3.585-.662.507-3.585a1.517,1.517,0,0,0-.39-1.286l-2.416-2.65,2.455-2.572a1.464,1.464,0,0,0,.429-1.286l-.429-3.546A.121.121,0,0,1,37,6.184l3.546-.624a1.577,1.577,0,0,0,1.091-.779L43.4,1.625l3.2,1.559a1.491,1.491,0,0,0,1.4,0L51.228,1.7h.039l1.715,3.234a1.457,1.457,0,0,0,1.052.74l3.546.7-.507,3.585a1.517,1.517,0,0,0,.39,1.286l2.455,2.65-2.494,2.572A1.464,1.464,0,0,0,57,17.758l.429,3.585-3.507.585a1.577,1.577,0,0,0-1.091.779l-1.754,3.157-3.2-1.559a1.491,1.491,0,0,0-1.4,0Zm13.25,6.625a.754.754,0,0,0-.662.39l-2.416,4.287-5.495-9.509a.628.628,0,0,0-.156-.273l-.857-1.52.273-.117,3.2,1.559a1.6,1.6,0,0,0,2.065-.624l1.754-3.157,2.338-.429,5.339,9.392Z" transform="translate(-30.433 0)"/><path class="a" d="M137.876,68.869a7.794,7.794,0,1,0-7.794,7.794A7.817,7.817,0,0,0,137.876,68.869ZM130.082,75.1a6.235,6.235,0,1,1,6.235-6.235A6.253,6.253,0,0,1,130.082,75.1Z" transform="translate(-113.339 -55.125)"/></g></g></g></svg>