<svg xmlns="http://www.w3.org/2000/svg" width="35.972" height="35.972" viewBox="0 0 35.972 35.972"><defs><style>.a{fill:#fff;}</style></defs><g transform="translate(-0.001)"><g transform="translate(0.001)"><g transform="translate(0)"><path class="a" d="M27.729,0H2.249A2.248,2.248,0,0,0,0,2.248V20.234a2.248,2.248,0,0,0,2.248,2.248h9.742v-1.5H2.249a.749.749,0,0,1-.749-.749V2.248A.749.749,0,0,1,2.249,1.5h25.48a.749.749,0,0,1,.749.749V15.738h1.5V2.248A2.248,2.248,0,0,0,27.729,0Z" transform="translate(-0.001)"/></g></g><g transform="translate(8.994 21.733)"><rect class="a" width="1.499" height="4.496"/></g><g transform="translate(2.999 15.738)"><path class="a" d="M44.916,226.248a.749.749,0,0,1-.749-.749V224h-1.5v1.5a2.248,2.248,0,0,0,2.248,2.248h1.5v-1.5Z" transform="translate(-42.668 -224)"/></g><g transform="translate(2.999 12.74)"><rect class="a" width="1.499" height="1.499"/></g><g transform="translate(13.489 13.489)"><path class="a" d="M205.886,194.374a8.142,8.142,0,1,0,0,11.515A8.142,8.142,0,0,0,205.886,194.374Zm-5.762,12.4a6.644,6.644,0,1,1,6.646-6.641A6.644,6.644,0,0,1,200.124,206.776Z" transform="translate(-191.986 -191.989)"/></g><g transform="translate(27.679 27.677)"><path class="a" d="M402.03,398.864l-4.7-4.7a.749.749,0,0,0-1.06,0l-2.091,2.091a.749.749,0,0,0,0,1.06l4.7,4.7a.749.749,0,0,0,.53.22h0a.749.749,0,0,0,.53-.222l2.091-2.091A.749.749,0,0,0,402.03,398.864Zm-2.621,1.563-3.644-3.645,1.031-1.031,3.644,3.645Z" transform="translate(-393.956 -393.942)"/></g><g transform="translate(26.33 26.329)"><g transform="translate(0 0)"><rect class="a" width="1.499" height="3.696" transform="translate(0 1.06) rotate(-45)"/></g></g><g transform="translate(21.734 16.487)"><path class="a" d="M309.334,234.667v1.5a3.752,3.752,0,0,1,3.747,3.747h1.5A5.252,5.252,0,0,0,309.334,234.667Z" transform="translate(-309.334 -234.667)"/></g><g transform="translate(7.495 25.48)"><rect class="a" width="5.995" height="1.499"/></g><g transform="translate(8.994 2.998)"><path class="a" d="M130.249,42.667a2.248,2.248,0,1,0,2.248,2.248A2.248,2.248,0,0,0,130.249,42.667Zm0,3a.749.749,0,1,1,.749-.749A.749.749,0,0,1,130.249,45.665Z" transform="translate(-128.001 -42.667)"/></g><g transform="translate(14.24 8.244)"><path class="a" d="M204.916,117.333a2.248,2.248,0,1,0,2.248,2.248A2.248,2.248,0,0,0,204.916,117.333Zm0,3a.749.749,0,1,1,.749-.749A.749.749,0,0,1,204.916,120.331Z" transform="translate(-202.668 -117.333)"/></g><g transform="translate(6.216 5.466)"><g transform="translate(0 0)"><rect class="a" width="5.299" height="1.499" transform="translate(0 3.747) rotate(-45)"/></g></g><g transform="translate(11.458 5.468)"><g transform="translate(0 0)"><rect class="a" width="1.499" height="5.299" transform="translate(0 1.06) rotate(-45)"/></g></g><g transform="translate(19.486 2.998)"><path class="a" d="M279.582,42.667a2.248,2.248,0,1,0,2.248,2.248A2.248,2.248,0,0,0,279.582,42.667Zm0,3a.749.749,0,1,1,.749-.749A.749.749,0,0,1,279.582,45.665Z" transform="translate(-277.334 -42.667)"/></g><g transform="translate(16.707 5.468)"><g transform="translate(0 0)"><rect class="a" width="5.299" height="1.499" transform="translate(0 3.747) rotate(-45)"/></g></g></g></svg>